:SAMPLES-PER-SECOND 30
:FULLY-SPECIFIED
:DEGREES
231
root  -21.803 33.3498 -13.193 -175.717 -34.9934 -178.372
RightUpLeg  -3.37639 -25.2339 -10.3325
RightLeg  28.6276 -13.7943 -6.33069
RightFoot  2.99938 0.0310934 -0.586706
RightToes  -43.9055 -0.25041 -0.336104
Spine  -2.87005 1.18185 0.268337
Spine1  -5.76972 2.58653 0.887967
HEad  -64.0506 16.8573 13.4553
LeftShoulder1  -1.94126e-019 -3.10601e-018 -2.51263e-017
LeftArm  -69.8623 -31.1894 0.707903
LeftForeArm  76.7381 -79.5218 -68.0748
LeftHand  -0.66377 0.66523 16.3202
RightShoulder  -4.96962e-017 0 -2.36833e-017
RightArm  -79.5302 24.8878 -5.94113
RightForeArm  67.2973 78.1828 51.8026
RightHand  0.681827 -10.1512 -17.0888
LeftUpLeg  -24.0599 20.2732 -0.270132
LeftLeg  40.2676 8.75913 6.44258
LeftFoot  -9.92426 -0.16813 -1.77475
LeftToes  -13.5679 1.70063e-006 7.6642e-008
232
root  -22.6554 33.0098 -13.1375 -176.167 -39.5737 -177.918
RightUpLeg  -3.46979 -28.3387 -12.4608
RightLeg  33.8491 -12.6217 -7.24616
RightFoot  5.19549 0.0789719 -1.13235
RightToes  -50.0441 -0.30327 -0.364556
Spine  -2.72965 0.833224 0.253393
Spine1  -5.49527 1.83633 0.862841
HEad  -68.617 15.2755 11.094
LeftShoulder1  -1.94126e-019 -3.10601e-018 -2.51263e-017
LeftArm  -67.7566 -27.373 -2.67052
LeftForeArm  126.986 -78.9086 -118.829
LeftHand  -0.768898 0.665823 18.8801
RightShoulder  -4.96962e-017 0 -2.36833e-017
RightArm  -74.1787 15.3331 -1.97469
RightForeArm  141.953 78.5125 126.25
RightHand  0.61621 -9.57513 -17.5767
LeftUpLeg  -24.9749 18.3125 -0.986348
LeftLeg  42.812 6.5768 5.31635
LeftFoot  -12.7044 -0.214561 -1.76566
LeftToes  -9.78909 1.70063e-006 7.6642e-008
233
root  -23.5307 32.7765 -13.1228 -176.411 -43.2308 -177.339
RightUpLeg  -3.0293 -29.41 -13.9173
RightLeg  36.8251 -12.5986 -8.11709
RightFoot  8.72762 0.208812 -2.11952
RightToes  -57.3144 -0.369369 -0.390708
Spine  -2.84705 0.660836 0.231826
Spine1  -5.72538 1.44574 0.865152
HEad  -72.5595 13.2145 9.0614
LeftShoulder1  -1.94126e-019 -3.10601e-018 -2.51263e-017
LeftArm  -64.6631 -23.7126 -3.01867
LeftForeArm  149.548 -75.2063 -139.861
LeftHand  -0.938362 0.549557 22.4286
RightShoulder  -4.96962e-017 0 -2.36833e-017
RightArm  -70.433 8.604 -0.073075
RightForeArm  171.815 71.1004 152.148
RightHand  0.350528 -7.70513 -18.308
LeftUpLeg  -25.0963 17.2152 -1.50333
LeftLeg  43.9789 4.49421 3.79404
LeftFoot  -14.9682 -0.20776 -1.41986
LeftToes  -9.56223 1.70063e-006 7.6642e-008
234
root  -24.4561 32.7532 -13.1126 -176.024 -46.004 -177.066
RightUpLeg  -3.09562 -28.2788 -14.3996
RightLeg  38.447 -14.235 -9.69737
RightFoot  13.795 0.563992 -4.02715
RightToes  -62.0263 -0.413759 -0.403098
Spine  -3.20406 0.5581 0.168899
Spine1  -6.44508 1.20078 0.790548
HEad  -75.9815 11.2443 6.99339
LeftShoulder1  -1.94126e-019 -3.10601e-018 -2.51263e-017
LeftArm  -62.8486 -20.7285 -0.555711
LeftForeArm  159.473 -73.1702 -146.435
LeftHand  -1.29742 -1.10691 23.1345
RightShoulder  -4.96962e-017 0 -2.36833e-017
RightArm  -68.653 6.67544 -0.629487
RightForeArm  -176.749 66.3665 159.176
RightHand  0.196824 -6.71431 -18.4319
LeftUpLeg  -24.4652 16.3799 -2.30702
LeftLeg  43.2628 3.03623 2.50003
LeftFoot  -16.1938 -0.164328 -0.993519
LeftToes  -8.94351 1.70063e-006 7.6642e-008
235
root  -25.5034 33.0247 -13.0886 -175.782 -48.1467 -176.685
RightUpLeg  -2.88779 -27.3548 -14.5243
RightLeg  38.4846 -16.3637 -11.0885
RightFoot  19.5645 1.26439 -6.67442
RightToes  -59.4317 -0.38919 -0.396727
Spine  -3.6232 0.679829 0.180697
Spine1  -7.2733 1.46259 0.796609
HEad  -78.6489 8.77497 4.61524
LeftShoulder1  -1.94126e-019 -3.10601e-018 -2.51263e-017
LeftArm  -62.2372 -20.6685 3.89901
LeftForeArm  159.34 -75.0789 -142.061
LeftHand  -1.52622 -2.18993 23.3413
RightShoulder  -4.96962e-017 0 -2.36833e-017
RightArm  -69.2415 10.0036 -4.30099
RightForeArm  179.773 68.6997 156.348
RightHand  0.342784 -7.42863 -20.1483
LeftUpLeg  -22.2828 15.0351 -3.04334
LeftLeg  40.0725 2.53472 1.86029
LeftFoot  -15.9377 -0.129212 -0.761495
LeftToes  -8.12266 1.70063e-006 7.6642e-008
